<?xml version="1.0" encoding="utf-8"?>
<!-- Generator: Adobe Illustrator 26.3.1, SVG Export Plug-In . SVG Version: 6.00 Build 0)  -->
<svg version="1.1" id="Layer_1" xmlns="http://www.w3.org/2000/svg" xmlns:xlink="http://www.w3.org/1999/xlink" x="0px" y="0px"
	 viewBox="0 0 202 185" style="enable-background:new 0 0 202 185;" xml:space="preserve">
<style type="text/css">
	.st0{fill:#FFFFFF;stroke:#000000;stroke-width:7.578;stroke-linecap:round;stroke-linejoin:round;stroke-miterlimit:7.4634;}
	.st1{fill:none;stroke:#000000;stroke-width:7.578;stroke-linecap:round;stroke-linejoin:round;stroke-miterlimit:7.4634;}
</style>
<g id="g5439" transform="matrix(.62977 .77678 -.77678 .62977 1980.2 -124.31)">
	<g id="g3915-6-1-6-3-8-9-4" transform="matrix(1.2311,0,0,1.2311,-513.75,545.62)">
		<path id="path3894-6-1-0-5-5-2-9" class="st0" d="M-386.24,909.42c3.36,5.53-0.43,9.06-5.56,11.68
			c-7.24,3.7-25.16,1.89-31.29-1.81c-5.63-3.41-8.13-8.43-5.45-12.79"/>
		<path id="path3112-2-8-6-8-2-9-8" class="st0" d="M-470.19,873.07c-3.65,7.23,8.86,11.72,22.56,14.25
			c5.32,0.98,15.79,18.89,28.24,23.18c8.1,2.79,26.45,3.47,32.91-1.29c11.07-8.15,16.67-18.66,19.2-31.65
			c0.89-4.61,1.13-9.87,0.87-14.16c-0.86-14.11,11.68-48.4,10.71-52.02c-2.68-10.06-14.31-4.16-16.74,2.3
			c-1.17,3.13-12.5,25.08-12.56,20.88c-0.16-10.33,0.88-22.76,2.54-34.46c2.48-17.5-21.95-13.09-24.11,3.32
			c-1.01,7.68-2.76,13.99-4.61,31.2c-2.84-9.27-7.6-22.58-9.2-31.78c-2.64-15.18-24.4-6.08-20.79,12.41
			c2.46,12.59,9.38,34.78,8.3,56.66C-441.37,864.81-459.17,851.26-470.19,873.07L-470.19,873.07z"/>
		<path id="path3882-6-1-33-9-9-7-9" d="M-413.21,834.24c2.74,11.42,6.75,16.66,8.25,19.32c-1.91-7.12-2.59-8.87-4.05-16.6
			c-0.25-1.32-0.32-2.89-0.11-4.8L-413.21,834.24z"/>
		<path id="path3884-6-1-2-9-6-6-0" d="M-386.84,834.62c0.12,6.88,1.9,15.16,4.48,20.32c-0.12-3.76-0.38-10.21-0.67-15.92
			c-0.08-1.55,0.23-2.95,1.5-4.75C-383.26,834.76-385.05,834.62-386.84,834.62L-386.84,834.62z"/>
		<path id="path3886-8-5-4-3-7-0-8" class="st1" d="M-395.11,902.56c3.64-8.73,3.59-11.24,4.69-15.7"/>
		<path id="path3888-4-4-9-8-4-7-4" class="st1" d="M-403.57,903.19c1.52-10.34,1.28-15.47,1.68-22.46"/>
		<path id="path3890-1-8-5-1-8-9-7" class="st1" d="M-413.68,903.64c0.09-7.2-0.54-10.6-0.95-15.18"/>
	</g>
</g>
</svg>
