<?xml version="1.0" encoding="utf-8"?>
<!-- Generator: Adobe Illustrator 26.3.1, SVG Export Plug-In . SVG Version: 6.00 Build 0)  -->
<svg version="1.1" id="Layer_1" xmlns="http://www.w3.org/2000/svg" xmlns:xlink="http://www.w3.org/1999/xlink" x="0px" y="0px"
	 viewBox="0 0 202 185" style="enable-background:new 0 0 202 185;" xml:space="preserve">
<style type="text/css">
	.st0{fill:#FFFFFF;stroke:#000000;stroke-width:6.1551;stroke-linecap:round;stroke-linejoin:round;stroke-miterlimit:6.062;}
	.st1{fill:none;stroke:#000000;stroke-width:6.1551;stroke-linecap:round;stroke-linejoin:round;stroke-miterlimit:6.062;}
</style>
<g id="g32290" transform="matrix(.19511 1.2155 1.2155 -.19511 -740.71 627.61)">
	<path id="path32292" class="st0" d="M-299.28,784.37c3.73,6.1-0.48,10-6.16,12.9c-8.03,4.1-27.9,2.1-34.7-2
		c-6.24-3.8-9.01-9.3-6.04-14.2"/>
	<path id="path32294" class="st0" d="M-367.4,739.47c-0.86,15.7,13.89,40.3,31.36,46.1c9.02,2.9,29.33,3.8,36.49-1.5
		c12.28-9,18.48-20.7,21.29-35.1c0.99-5.1,1.24-10.9,0.95-15.7c-1.02-19.61-7.22-34.21-20.61-31.93
		c-4.09-16.07-28.91-12.22-29.02,0.06c-12.67-14.24-31.09-0.96-23.51,16.06C-353.25,719.67-366.5,723.17-367.4,739.47z"/>
	<path id="path32296" d="M-324.85,701.98c3.93,12.41,2.36,17.58,2.48,21c-2.27-7.88-2.63-9.93-5.67-18.12
		c-0.52-1.39-1.2-2.8-2.72-4.36l6.12-0.9C-324.59,699.3-324.99,701.07-324.85,701.98L-324.85,701.98z"/>
	<path id="path32298" d="M-296.29,699.79c1.51,7.49,2.52,16.87,0.95,23.07c-0.77-4.13-3.47-14.68-4.51-20.92
		C-299.86,701.94-299.83,701.95-296.29,699.79L-296.29,699.79z"/>
	<path id="path32300" class="st1" d="M-309.11,776.77c4.04-9.7,3.98-12.5,5.19-17.4"/>
	<path id="path32302" class="st1" d="M-318.49,777.47c1.69-11.5,1.43-17.2,1.86-24.9"/>
	<path id="path32304" class="st1" d="M-329.71,777.97c0.1-8-0.6-11.8-1.05-16.8"/>
	<path id="path32306" d="M-352.73,716.49c3.89,16.78-1.2,23.38-4.59,31.88c5.14-8.8,12.14-11.8,8.84-31.41L-352.73,716.49
		L-352.73,716.49z"/>
</g>
</svg>
