<?xml version="1.0" encoding="utf-8"?>
<!-- Generator: Adobe Illustrator 26.3.1, SVG Export Plug-In . SVG Version: 6.00 Build 0)  -->
<svg version="1.1" id="Layer_1" xmlns="http://www.w3.org/2000/svg" xmlns:xlink="http://www.w3.org/1999/xlink" x="0px" y="0px"
	 viewBox="0 0 202 185" style="enable-background:new 0 0 202 185;" xml:space="preserve">
<style type="text/css">
	.st0{fill:#FFFFFF;stroke:#000000;stroke-width:6.1553;stroke-linecap:round;stroke-linejoin:round;stroke-miterlimit:6.0622;}
	.st1{fill:none;stroke:#000000;stroke-width:6.1553;stroke-linecap:round;stroke-linejoin:round;stroke-miterlimit:6.0622;}
</style>
<g id="imagebot_10" transform="matrix(-.46644 1.1393 -1.1393 -.46644 1440.2 856.09)">
	<path id="imagebot_18" class="st0" d="M-137.88,1299.15c3.73,6.1-0.48,10-6.16,12.9c-8.03,4.1-27.9,2.1-34.7-2
		c-6.24-3.8-9.01-9.3-6.04-14.2"/>
	<path id="imagebot_17" class="st0" d="M-206,1254.25c-0.86,15.7,13.89,40.3,31.36,46.1c9.02,2.9,29.33,3.8,36.49-1.5
		c12.28-9,18.48-20.7,21.29-35.1c0.99-5.1,1.24-10.9,0.95-15.7c-1.29-17.56-14.83-27.89-20.61-31.93
		c-0.18-11.45,0.98-25.25,2.82-38.22c2.75-19.4-24.34-14.51-26.73,3.69c-1.12,8.52-3.06,15.51-5.11,34.59
		c-3.15-10.28-8.43-25.04-10.21-35.24c-2.92-16.83-27.06-6.74-23.05,13.76c2.73,13.96,7.07,24.24,9.74,37.54
		C-191.85,1234.45-205.1,1237.95-206,1254.25L-206,1254.25z"/>
	<path id="imagebot_16" d="M-167.78,1215.79c3.04,12.66,7.49,18.46,9.15,21.46c-2.12-7.92-2.87-9.87-4.49-18.45
		c-0.28-1.46-0.36-3.2-0.12-5.33L-167.78,1215.79z"/>
	<path id="imagebot_15" d="M-138.54,1216.22c0.13,7.64,2.11,16.81,4.97,22.53c-0.31-8.27-0.56-14.8-1.03-22.68
		C-134.62,1216.07-136.56,1216.22-138.54,1216.22L-138.54,1216.22z"/>
	<path id="imagebot_14" class="st1" d="M-147.71,1291.55c4.04-9.7,3.98-12.5,5.19-17.4"/>
	<path id="imagebot_13" class="st1" d="M-157.09,1292.25c1.69-11.5,1.43-17.2,1.86-24.9"/>
	<path id="imagebot_12" class="st1" d="M-168.31,1292.75c0.1-8-0.6-11.8-1.05-16.8"/>
	<path id="imagebot_11" d="M-191.33,1231.27c3.89,16.78-1.2,23.38-4.59,31.88c5.15-8.8,12.14-11.8,8.84-31.41L-191.33,1231.27
		L-191.33,1231.27z"/>
</g>
</svg>
